<svg width="32" height="32" viewBox="0 0 32 32" fill="none" xmlns="http://www.w3.org/2000/svg">
<g clip-path="url(#clip0_112_100)">
<path d="M30.4338 24.8276C29.808 24.2027 27.0053 22.4622 24.2693 20.9484C25.7769 18.7884 26.6667 16.1662 26.6667 13.3333C26.6667 5.96978 20.6969 0 13.3333 0C5.96889 0 0 5.96978 0 13.3333C0 20.6969 5.96889 26.6667 13.3333 26.6667C16.1413 26.6667 18.7431 25.7947 20.8924 24.312C22.408 27.0507 24.1511 29.8587 24.7769 30.4844C26.0338 31.7413 27.5556 32.0018 28.4444 32C29.4907 31.9982 32.0489 29.4391 32 28.4444C31.9564 27.5564 31.6907 26.0844 30.4338 24.8276Z" fill="#292F33" fill-opacity="0.8"/>
<path opacity="0.8" d="M13.3334 24C19.2245 24 24.0001 19.2244 24.0001 13.3334C24.0001 7.44232 19.2245 2.66669 13.3334 2.66669C7.44238 2.66669 2.66675 7.44232 2.66675 13.3334C2.66675 19.2244 7.44238 24 13.3334 24Z" fill="#66757F" fill-opacity="0.8"/>
<path d="M14.2221 22.2222C18.5448 20.8596 17.7777 17.7778 17.7777 14.2222C17.7777 10.6667 21.3341 8.25957 18.0746 5.55557C16.1395 3.95024 12.0746 3.40713 10.1857 4.11113C8.44969 4.75735 6.22214 6.0738 6.22214 8.74046C6.22214 11.4071 6.17058 11.3422 4.70391 13.7405C2.37058 17.5556 8.11102 24.1485 14.2221 22.2222Z" fill="#F5F8FA" fill-opacity="0.8"/>
<path d="M11.5556 19.5556C13.5192 19.5556 15.1111 17.9637 15.1111 16C15.1111 14.0363 13.5192 12.4445 11.5556 12.4445C9.59188 12.4445 8 14.0363 8 16C8 17.9637 9.59188 19.5556 11.5556 19.5556Z" fill="#66757F" fill-opacity="0.8"/>
</g>
<defs>
<clipPath id="clip0_112_100">
<rect width="32" height="32" fill="white"/>
</clipPath>
</defs>
</svg>
